<mxfile host="app.diagrams.net" modified="2022-03-07T01:27:57.283Z" agent="5.0 (Macintosh; Intel Mac OS X 10_15_7) AppleWebKit/537.36 (KHTML, like Gecko) Chrome/98.0.4758.109 Safari/537.36" etag="E4CensHmj59JsU4eOcS-" version="16.6.4" type="github">
  <diagram id="3228e29e-7158-1315-38df-8450db1d8a1d" name="Page-1">
    <mxGraphModel dx="1020" dy="71" grid="0" gridSize="10" guides="1" tooltips="1" connect="1" arrows="1" fold="1" page="1" pageScale="1" pageWidth="1800" pageHeight="300" background="#EFF1F3" math="0" shadow="0">
      <root>
        <mxCell id="0" />
        <mxCell id="1" parent="0" />
        <mxCell id="01zXMhBgvo-8C28YNf5V-1" value="&lt;font style=&quot;font-size: 36px&quot;&gt;用户态3G&lt;/font&gt;" style="rounded=0;whiteSpace=wrap;html=1;strokeColor=none;fillColor=#9AC7BF;fontColor=#000000;" parent="1" vertex="1">
          <mxGeometry x="332" y="1606" width="372" height="325" as="geometry" />
        </mxCell>
        <mxCell id="y7l82O5Fm7AeOVHvfl-y-2" value="&lt;font style=&quot;font-size: 36px&quot;&gt;内核态1G&lt;/font&gt;" style="rounded=0;whiteSpace=wrap;html=1;strokeColor=none;fillColor=#FDD276;fontColor=#000000;" parent="1" vertex="1">
          <mxGeometry x="332" y="1481" width="372" height="125" as="geometry" />
        </mxCell>
        <mxCell id="y7l82O5Fm7AeOVHvfl-y-3" value="&lt;font style=&quot;font-size: 36px&quot;&gt;0xFFFF FFFF&lt;/font&gt;" style="text;html=1;strokeColor=none;fillColor=none;align=center;verticalAlign=middle;whiteSpace=wrap;rounded=0;fontColor=#000000;" parent="1" vertex="1">
          <mxGeometry x="74" y="1471" width="243" height="30" as="geometry" />
        </mxCell>
        <mxCell id="y7l82O5Fm7AeOVHvfl-y-4" value="&lt;font style=&quot;font-size: 36px&quot;&gt;0xC000 0000&lt;/font&gt;" style="text;html=1;strokeColor=none;fillColor=none;align=center;verticalAlign=middle;whiteSpace=wrap;rounded=0;fontColor=#000000;" parent="1" vertex="1">
          <mxGeometry x="74" y="1596" width="243" height="30" as="geometry" />
        </mxCell>
        <mxCell id="y7l82O5Fm7AeOVHvfl-y-5" value="&lt;font style=&quot;font-size: 36px&quot;&gt;0x0000 0000&lt;/font&gt;" style="text;html=1;strokeColor=none;fillColor=none;align=center;verticalAlign=middle;whiteSpace=wrap;rounded=0;fontColor=#000000;" parent="1" vertex="1">
          <mxGeometry x="74" y="1917" width="243" height="30" as="geometry" />
        </mxCell>
        <mxCell id="y7l82O5Fm7AeOVHvfl-y-6" value="32位系统" style="text;html=1;strokeColor=none;fillColor=none;align=center;verticalAlign=middle;whiteSpace=wrap;rounded=0;fontSize=36;fontColor=#000000;" parent="1" vertex="1">
          <mxGeometry x="419" y="1957" width="198" height="30" as="geometry" />
        </mxCell>
        <mxCell id="y7l82O5Fm7AeOVHvfl-y-7" value="&lt;font style=&quot;font-size: 36px&quot;&gt;用户态128T&lt;/font&gt;" style="rounded=0;whiteSpace=wrap;html=1;strokeColor=none;fillColor=#9AC7BF;fontColor=#000000;" parent="1" vertex="1">
          <mxGeometry x="894" y="1610" width="372" height="325" as="geometry" />
        </mxCell>
        <mxCell id="y7l82O5Fm7AeOVHvfl-y-8" value="&lt;font style=&quot;font-size: 36px&quot;&gt;内核态128T&lt;/font&gt;" style="rounded=0;whiteSpace=wrap;html=1;strokeColor=none;fillColor=#FDD276;fontColor=#000000;" parent="1" vertex="1">
          <mxGeometry x="894" y="1323" width="372" height="125" as="geometry" />
        </mxCell>
        <mxCell id="y7l82O5Fm7AeOVHvfl-y-9" value="&lt;font style=&quot;font-size: 36px&quot;&gt;0xFFFF 8000 0000 0000&lt;/font&gt;" style="text;html=1;strokeColor=none;fillColor=none;align=center;verticalAlign=middle;whiteSpace=wrap;rounded=0;fontColor=#000000;" parent="1" vertex="1">
          <mxGeometry x="1286.5" y="1435" width="407" height="30" as="geometry" />
        </mxCell>
        <mxCell id="y7l82O5Fm7AeOVHvfl-y-10" value="&lt;font style=&quot;font-size: 36px&quot;&gt;0x0000 7FFF FFFF F000&lt;/font&gt;" style="text;html=1;strokeColor=none;fillColor=none;align=center;verticalAlign=middle;whiteSpace=wrap;rounded=0;fontColor=#000000;" parent="1" vertex="1">
          <mxGeometry x="1286.5" y="1600" width="421" height="30" as="geometry" />
        </mxCell>
        <mxCell id="y7l82O5Fm7AeOVHvfl-y-11" value="&lt;font style=&quot;font-size: 36px&quot;&gt;0x0000 0000&amp;nbsp;&lt;/font&gt;&lt;span style=&quot;font-size: 36px&quot;&gt;0000 0000&lt;/span&gt;" style="text;html=1;strokeColor=none;fillColor=none;align=center;verticalAlign=middle;whiteSpace=wrap;rounded=0;fontColor=#000000;" parent="1" vertex="1">
          <mxGeometry x="1281" y="1913" width="410" height="30" as="geometry" />
        </mxCell>
        <mxCell id="y7l82O5Fm7AeOVHvfl-y-12" value="64位系统" style="text;html=1;strokeColor=none;fillColor=none;align=center;verticalAlign=middle;whiteSpace=wrap;rounded=0;fontSize=36;fontColor=#000000;" parent="1" vertex="1">
          <mxGeometry x="981" y="1957" width="198" height="30" as="geometry" />
        </mxCell>
        <mxCell id="y7l82O5Fm7AeOVHvfl-y-13" value="&lt;font style=&quot;font-size: 36px&quot;&gt;空洞&lt;/font&gt;" style="rounded=0;whiteSpace=wrap;html=1;strokeColor=none;fillColor=#CCCCCC;fontColor=#000000;" parent="1" vertex="1">
          <mxGeometry x="893" y="1448" width="372" height="163" as="geometry" />
        </mxCell>
        <mxCell id="y7l82O5Fm7AeOVHvfl-y-15" value="&lt;font style=&quot;font-size: 36px&quot;&gt;0xFFFF FFFF FFFF FFFF&lt;/font&gt;" style="text;html=1;strokeColor=none;fillColor=none;align=center;verticalAlign=middle;whiteSpace=wrap;rounded=0;fontColor=#000000;" parent="1" vertex="1">
          <mxGeometry x="1286.5" y="1314" width="429" height="30" as="geometry" />
        </mxCell>
      </root>
    </mxGraphModel>
  </diagram>
</mxfile>
